<svg width="555" height="166" viewBox="0 0 555 166" fill="none" xmlns="http://www.w3.org/2000/svg">
<path fill-rule="evenodd" clip-rule="evenodd" d="M57.6383 135.277C89.4711 135.277 115.277 109.471 115.277 77.6383C115.277 45.8056 89.4711 20 57.6383 20C25.8056 20 0 45.8056 0 77.6383C0 109.471 25.8056 135.277 57.6383 135.277ZM57.5545 132.08C87.668 132.08 112.08 107.668 112.08 77.5545C112.08 47.441 87.668 23.0292 57.5545 23.0292C27.441 23.0292 3.02919 47.441 3.02919 77.5545C3.02919 107.668 27.441 132.08 57.5545 132.08Z" fill="#AC8866"/>
<path fill-rule="evenodd" clip-rule="evenodd" d="M45.0991 28.5956C46.1257 27.3505 47.5793 26.359 48.9059 26.0016C50.0941 25.6903 51.2246 25.8402 52.2628 26.4628L52.8973 26.8432L54.4892 26.6242C55.3659 26.5089 56.3119 26.4051 56.5887 26.4051C56.8631 26.4051 56.9857 26.4051 57.0288 26.4637C57.0636 26.5109 57.0465 26.5964 57.0155 26.751C56.8636 27.5024 56.8067 27.7242 56.8712 27.7682C56.9047 27.791 56.9708 27.7661 57.0732 27.7424C57.9384 27.5349 60.1764 27.2121 60.6493 27.2121C60.9954 27.2121 61.2607 27.2813 61.3761 27.3966C61.5376 27.558 61.526 27.6272 61.1569 28.0998C60.6378 28.78 60.6378 29.0336 61.1338 29.1028C61.2618 29.1254 61.6207 29.1774 62.0502 29.2397C62.2788 29.2728 62.5275 29.3089 62.7719 29.3449C64.5946 29.5985 65.2752 29.9444 66.5557 31.2702C67.1094 31.8351 67.5593 32.3885 67.5593 32.4922C67.5593 32.8842 67.4093 32.9649 66.8671 32.8611C66.175 32.7228 65.3675 32.7228 65.3675 32.8496C65.3675 33.011 66.5903 33.4376 67.5593 33.622C69.1974 33.9103 69.9356 33.8526 71.9313 33.2185C79.1181 30.9359 82.129 30.3018 85.8435 30.2903C88.0007 30.2787 89.062 30.4171 90.4348 30.9013C92.0267 31.4547 93.5264 32.4461 94.3569 33.5068C94.7511 34.0251 94.9774 34.1985 96.3108 34.8989C107.959 45.4453 115.277 60.6873 115.277 77.6383C115.277 90.6366 110.974 102.63 103.715 112.272C103.71 112.267 103.706 112.263 103.701 112.259L103.216 111.809L102.674 112.247C101.994 112.812 99.9864 114.922 99.8364 115.245C99.7485 115.442 99.8282 115.609 100.385 116.303C91.1884 126.464 78.419 133.332 64.0586 134.923C64.0949 134.817 64.1243 134.727 64.1447 134.659C64.26 134.313 64.5023 133.702 64.6869 133.322C65.1252 132.388 65.4136 131.189 65.7135 129.068C66.1634 125.736 66.3942 124.871 66.9594 124.237C67.3978 123.753 67.9169 122.681 68.113 121.862C68.1822 121.574 68.3206 120.732 68.4245 119.983C68.6436 118.38 68.8513 117.539 69.1858 116.87C69.3242 116.605 70.0971 115.372 70.9047 114.138C71.7122 112.904 72.5543 111.544 72.7619 111.117L73.1426 110.345L72.635 109.699C72.0698 108.962 71.516 108.593 71.3545 108.858C71.2969 108.939 71.2507 109.146 71.2507 109.307C71.2507 110.091 70.6624 111.256 70.2586 111.256C70.1894 111.256 69.8203 110.725 69.4511 110.068C68.4475 108.293 67.94 107.578 67.6054 107.497C67.4324 107.451 66.8787 107.544 66.2211 107.74C65.6097 107.901 64.8484 108.074 64.5138 108.108C63.7294 108.189 62.2528 107.889 61.0531 107.405C59.8534 106.921 56.2311 104.846 55.562 104.258C54.5584 103.382 53.6586 102.874 51.9513 102.252C51.2351 101.99 51.0124 101.903 50.971 101.957C50.9504 101.983 50.9747 102.045 51.0054 102.137C51.0515 102.298 50.8208 102.828 50.3017 103.785C49.7249 104.857 49.2289 105.549 48.3291 106.587C47.6715 107.348 46.8756 108.362 46.5641 108.835C46.2526 109.307 45.8835 109.838 45.7566 110.011C45.0414 110.945 44.4761 113.204 44.4415 115.279C44.43 116.582 44.5223 117.135 44.753 117.135C44.8222 117.124 45.1798 116.847 45.5374 116.513C46.0335 116.052 46.2065 115.798 46.2642 115.452C46.4026 114.703 47.0025 113.608 47.5908 112.997C48.2599 112.316 48.7444 112.167 49.3788 112.466C49.7134 112.628 49.8864 112.639 50.2556 112.547C50.8208 112.409 50.8785 112.524 50.717 113.492L50.6016 114.184L51.3515 115.291C52.6896 117.274 53.4741 119.395 53.4856 121.021C53.4856 122.323 52.978 123.937 52.182 125.125C51.8706 125.597 51.6399 125.759 50.6593 126.243C49.4481 126.843 48.7098 127.419 48.5252 127.915C48.3983 128.249 48.1214 128.376 46.9102 128.641C46.2642 128.791 45.4567 128.837 43.6802 128.837C41.3384 128.837 41.3153 128.837 40.6808 128.526C38.9159 127.65 36.5741 125.424 36.1127 124.202C36.0088 123.903 35.8243 123.522 35.7089 123.361C35.2129 122.623 34.6707 120.467 33.9785 116.444C33.5517 114.011 33.5171 112.582 33.8055 110.506C34.5784 105.076 36.2511 99.7964 38.0853 97.0064C39.6196 94.6776 41.2576 91.0807 40.7962 91.0807C40.727 91.0807 40.3002 91.392 39.8387 91.7724C39.3773 92.1529 38.4198 92.8907 37.6931 93.421C36.9663 93.9398 36.3203 94.4586 36.2511 94.5624C36.1588 94.7238 36.2511 94.8621 36.7817 95.3809C37.2663 95.842 37.4739 96.1418 37.6008 96.5683C37.7623 97.1217 37.7623 97.1448 37.4508 97.5137C37.2201 97.7904 36.8971 97.9864 36.3665 98.1708C35.3052 98.5397 34.4284 99.1162 32.3405 100.799C30.3448 102.413 29.6526 102.851 28.5798 103.186C27.3801 103.566 26.4572 103.486 25.0844 102.874C24.4615 102.598 24.4038 102.54 24.1731 101.929C23.1234 99.1277 23.5848 96.4876 25.592 93.7899C25.9266 93.3403 27.6223 91.5419 29.3527 89.7664C33.0788 85.9735 34.7976 84.1289 36.7933 81.8117L38.2583 80.1055L37.9123 79.702C37.5546 79.31 37.52 79.0794 37.5662 77.8804C37.5777 77.3271 37.7508 76.2549 37.9469 75.4594C38.0622 74.9522 38.2353 74.7331 39.2735 73.684C40.3694 72.5773 40.4847 72.4159 40.7962 71.5743C41.0615 70.8595 41.3038 70.456 41.9959 69.6259C43.0111 68.427 43.0457 68.2886 42.5727 66.8937C42.4112 66.421 42.2613 65.9829 42.2382 65.9368C42.2036 65.8907 41.8114 65.9598 41.373 66.0751C39.9772 66.4325 39.6426 66.0982 40.231 64.9223C40.5309 64.3228 40.6116 64.0115 40.6578 63.1814C40.727 61.8211 40.7039 61.7634 40.1041 61.994C39.8503 62.0977 39.608 62.1439 39.5619 62.0977C39.5157 62.0632 39.4465 61.5444 39.4004 60.9564C39.3687 60.5606 39.337 60.2028 39.3203 60.0137C39.3126 59.9275 39.3081 59.8763 39.3081 59.8727C39.304 59.8686 39.2717 59.8304 39.2187 59.7677C39.1238 59.6555 38.9625 59.4647 38.7774 59.2502C38.0045 58.3509 37.8546 57.7745 37.8776 55.9876C37.9007 54.8462 37.8776 54.5234 37.7738 54.6272C37.3009 55.0999 36.9202 54.3159 37.024 53.14C37.1047 52.2177 37.5085 51.4568 38.962 49.5085C40.4501 47.514 40.7155 47.0875 41.0269 46.1767C41.2576 45.508 41.3384 44.6203 41.1769 44.6203C41.1192 44.6203 40.5424 44.7817 39.8849 44.9662C38.4314 45.3928 38.3275 45.3928 38.4083 45.0469C38.4214 44.9684 38.4679 44.7524 38.5268 44.4791C38.5717 44.2709 38.6237 44.0295 38.6736 43.7903L38.8813 42.7873L38.5583 40.1242C38.166 36.9538 38.1891 35.9047 38.6736 34.821C38.962 34.1869 39.7003 33.3569 40.2771 33.0341C40.4501 32.9303 40.4617 32.8727 40.3463 32.6306C40.2656 32.4692 40.0118 32.181 39.7811 31.9734C39.435 31.6737 39.3773 31.5584 39.4696 31.4085C39.758 30.9589 42.6765 29.7138 44.0378 29.4602C44.3723 29.4026 44.5915 29.2296 45.0991 28.5956ZM62.1374 96.9718C61.999 95.035 61.7452 93.9859 60.8454 91.5649C60.4532 90.5043 60.0956 89.5935 60.0495 89.5359C60.0033 89.4782 59.5534 90.0547 59.0574 90.804C58.9271 90.9993 58.7931 91.1999 58.6626 91.3951C58.2848 91.9604 57.9372 92.4805 57.8 92.6947C57.6039 92.9829 56.9463 94.0205 56.3349 95.0004C55.7235 95.9804 55.0775 96.9718 54.893 97.1909L54.5469 97.5944L54.0278 97.3408L53.5202 97.0871L53.3933 97.3638C53.2779 97.6059 53.3241 97.652 54.097 98.0325C54.5584 98.263 55.9427 99.0009 57.177 99.6811C59.8534 101.145 60.3609 101.341 61.4222 101.341C62.0682 101.341 62.2874 101.295 62.5297 101.099C62.8873 100.822 62.8757 100.557 62.472 99.243C62.3335 98.8164 62.1951 97.8826 62.1374 96.9718Z" fill="#8C5929"/>
<path d="M168.116 27.3398C169.21 27.3398 170.247 27.431 171.227 27.6133C172.206 27.7728 173.095 27.9551 173.893 28.1602C174.69 28.3424 175.374 28.5247 175.943 28.707C176.513 28.8665 176.923 28.9463 177.174 28.9463C177.379 28.9463 177.573 28.8438 177.755 28.6387C177.937 28.4108 178.165 28.1715 178.438 27.9209C178.712 27.6702 179.076 27.4424 179.532 27.2373C179.988 27.0094 180.592 26.8955 181.344 26.8955C182.21 26.8955 182.893 27.1234 183.395 27.5791C183.896 28.012 184.146 28.5589 184.146 29.2197C184.146 37.5596 183.862 44.6462 183.292 50.4795C182.722 56.29 181.799 61.0182 180.523 64.6641C179.247 68.3099 177.595 70.9531 175.567 72.5938C173.539 74.2344 171.078 75.0547 168.185 75.0547C166.863 75.0547 165.484 74.7585 164.049 74.166C162.636 73.5736 161.337 72.8102 160.152 71.876C158.967 70.9645 157.988 69.9505 157.213 68.834C156.461 67.7174 156.085 66.6465 156.085 65.6211C156.085 65.2793 156.267 64.8805 156.632 64.4248C156.996 63.9691 157.441 63.5247 157.965 63.0918C158.489 62.6589 159.036 62.2943 159.605 61.998C160.175 61.7018 160.665 61.5537 161.075 61.5537C161.508 61.5537 161.873 61.7246 162.169 62.0664C162.465 62.431 162.739 62.8753 162.989 63.3994C163.263 63.9235 163.536 64.4932 163.81 65.1084C164.083 65.7464 164.425 66.3275 164.835 66.8516C165.245 67.3757 165.746 67.8086 166.339 68.1504C166.931 68.515 167.672 68.6973 168.561 68.6973C173.528 68.6973 176.445 61.1094 177.311 45.9336C177.311 45.25 177.117 44.9082 176.729 44.9082C176.41 44.9082 176.16 45.0677 175.978 45.3867C173.836 48.2806 171.329 50.4567 168.458 51.915C165.61 53.3506 162.442 54.0684 158.956 54.0684C157.338 54.0684 155.846 53.8291 154.479 53.3506C153.111 52.8493 151.926 52.1657 150.924 51.2998C149.944 50.4111 149.181 49.363 148.634 48.1553C148.087 46.9248 147.813 45.5804 147.813 44.1221C147.813 42.6865 148.064 41.2738 148.565 39.8838C149.09 38.471 149.807 37.1494 150.719 35.9189C151.653 34.6657 152.758 33.515 154.034 32.4668C155.31 31.4186 156.7 30.5186 158.204 29.7666C159.708 28.9919 161.292 28.3994 162.955 27.9893C164.641 27.5563 166.362 27.3398 168.116 27.3398ZM160.016 47.7793C163.137 47.7793 165.997 46.7995 168.595 44.8398C171.192 42.8574 173.414 39.9863 175.26 36.2266C175.305 36.0898 175.34 35.9873 175.362 35.9189C175.385 35.8278 175.396 35.7367 175.396 35.6455C175.396 35.4176 175.157 35.1784 174.679 34.9277C174.2 34.6771 173.574 34.4606 172.799 34.2783C172.024 34.096 171.135 33.9479 170.133 33.834C169.153 33.6973 168.162 33.6289 167.159 33.6289C165.541 33.6289 163.98 33.9023 162.477 34.4492C160.973 34.9961 159.64 35.7253 158.478 36.6367C157.315 37.5482 156.381 38.585 155.675 39.7471C154.968 40.9092 154.615 42.1169 154.615 43.3701C154.615 44.7145 155.105 45.7855 156.085 46.583C157.088 47.3805 158.398 47.7793 160.016 47.7793ZM195.016 19.1367C194.355 19.1367 193.728 19.0456 193.136 18.8633C192.566 18.6582 192.065 18.3848 191.632 18.043C191.222 17.6784 190.891 17.2568 190.641 16.7783C190.39 16.2998 190.265 15.7757 190.265 15.2061C190.265 14.249 190.641 13.4743 191.393 12.8818C192.167 12.2894 193.193 11.9932 194.469 11.9932C195.061 11.9932 195.631 12.1071 196.178 12.335C196.725 12.54 197.203 12.8249 197.613 13.1895C198.046 13.554 198.388 13.987 198.639 14.4883C198.889 14.9668 199.015 15.4681 199.015 15.9922C199.015 16.972 198.65 17.7467 197.921 18.3164C197.215 18.8633 196.246 19.1367 195.016 19.1367ZM190.333 29.5615C190.333 28.764 190.675 28.1146 191.358 27.6133C192.065 27.0892 192.988 26.8271 194.127 26.8271C196.178 26.8271 197.271 27.5335 197.408 28.9463C197.499 29.9261 197.59 31.0312 197.682 32.2617C197.796 33.4922 197.898 34.8024 197.989 36.1924C198.103 37.5596 198.194 38.9837 198.263 40.4648C198.354 41.9232 198.434 43.3701 198.502 44.8057C198.57 46.2184 198.627 47.5856 198.673 48.9072C198.718 50.2288 198.741 51.4365 198.741 52.5303C198.741 53.6696 198.331 54.5241 197.511 55.0938C196.713 55.6634 195.54 55.9482 193.99 55.9482C193.284 55.9482 192.726 55.7773 192.315 55.4355C191.928 55.1165 191.734 54.638 191.734 54C191.734 50.8555 191.655 47.916 191.495 45.1816C191.358 42.4245 191.199 39.9749 191.017 37.833C190.857 35.6911 190.698 33.9137 190.538 32.501C190.401 31.0654 190.333 30.0856 190.333 29.5615ZM208.243 14.5225C208.243 13.3148 208.585 12.4717 209.269 11.9932C209.952 11.4919 211.08 11.2412 212.652 11.2412C213.222 11.2412 213.701 11.2982 214.088 11.4121C214.498 11.5033 214.84 11.6855 215.113 11.959C215.41 12.2324 215.637 12.597 215.797 13.0527C215.979 13.4857 216.127 14.0439 216.241 14.7275C216.515 16.8467 216.811 19.0342 217.13 21.29C217.472 23.5459 217.825 25.8132 218.189 28.0918C218.326 29.1172 218.862 29.6299 219.796 29.6299C220.047 29.6299 220.457 29.6071 221.026 29.5615C221.619 29.4932 222.314 29.4248 223.111 29.3564C223.909 29.2653 224.763 29.1742 225.675 29.083C226.609 28.9919 227.532 28.9121 228.443 28.8438C229.378 28.7526 230.255 28.6842 231.075 28.6387C231.918 28.5703 232.659 28.5361 233.297 28.5361C233.798 28.5361 234.197 28.6387 234.493 28.8438C234.789 29.026 235.017 29.2767 235.177 29.5957C235.359 29.8919 235.473 30.2337 235.519 30.6211C235.587 30.9857 235.621 31.3617 235.621 31.749C235.621 32.0908 235.553 32.444 235.416 32.8086C235.302 33.1732 235.131 33.5036 234.903 33.7998C234.698 34.0732 234.436 34.3011 234.117 34.4834C233.798 34.6657 233.434 34.7568 233.023 34.7568C231.041 34.7568 229.036 34.8252 227.008 34.9619C225.003 35.0758 222.997 35.2354 220.992 35.4404C219.967 35.5771 219.454 36.0898 219.454 36.9785C219.454 37.0469 219.465 37.138 219.488 37.252C219.511 37.3431 219.522 37.4229 219.522 37.4912C219.796 39.4736 220.047 41.3307 220.274 43.0625C220.525 44.7943 220.73 46.3438 220.89 47.7109C221.072 49.0553 221.209 50.1833 221.3 51.0947C221.414 51.9834 221.471 52.5758 221.471 52.8721C221.471 53.6924 221.391 54.376 221.231 54.9229C221.072 55.4925 220.81 55.9482 220.445 56.29C220.081 56.6546 219.591 56.9053 218.976 57.042C218.383 57.2015 217.631 57.2812 216.72 57.2812C215.854 57.2812 215.216 57.0762 214.806 56.666C214.396 56.2559 214.168 55.6292 214.122 54.7861C213.985 52.0973 213.769 49.3971 213.473 46.6855C213.176 43.9512 212.835 41.2282 212.447 38.5166C212.242 37.5368 211.729 37.0469 210.909 37.0469C210.841 37.0469 210.761 37.0583 210.67 37.0811C210.579 37.1038 210.499 37.1152 210.431 37.1152C209.018 37.4342 207.685 37.7533 206.432 38.0723C205.178 38.3913 204.005 38.7331 202.911 39.0977C202.296 39.3027 201.749 39.4508 201.271 39.542C200.792 39.6104 200.359 39.6445 199.972 39.6445C199.448 39.6445 199.06 39.4167 198.81 38.9609C198.559 38.4824 198.434 37.89 198.434 37.1836C198.434 36.9329 198.456 36.6481 198.502 36.3291C198.548 35.9873 198.639 35.6569 198.775 35.3379C198.889 34.9961 199.072 34.6885 199.322 34.415C199.55 34.1188 199.869 33.8796 200.279 33.6973C201.236 33.3099 202.512 32.9111 204.107 32.501C205.702 32.068 207.503 31.6693 209.508 31.3047C209.964 31.1908 210.317 31.0085 210.567 30.7578C210.841 30.4844 210.978 30.0856 210.978 29.5615C210.978 29.4476 210.978 29.3337 210.978 29.2197C210.978 29.083 210.955 28.9463 210.909 28.8096C210.545 26.7132 210.191 24.8105 209.85 23.1016C209.531 21.3698 209.246 19.8887 208.995 18.6582C208.767 17.4277 208.585 16.4593 208.448 15.7529C208.312 15.0465 208.243 14.6364 208.243 14.5225Z" fill="#AC8866"/>
<path d="M120.641 135.312C120.016 135.312 119.047 135.219 117.734 135.031C116.734 133.969 115.828 132.531 115.016 130.719C114.266 128.844 113.672 126.875 113.234 124.812C112.859 122.688 112.672 120.594 112.672 118.531C112.734 116.406 113.109 114.531 113.797 112.906C113.797 112.844 114.078 112.094 114.641 110.656C115.266 109.219 116.047 107.406 116.984 105.219C117.922 102.969 118.984 100.5 120.172 97.8125C121.359 95.0625 122.547 92.375 123.734 89.75C124.922 87.125 126.047 84.75 127.109 82.625C128.234 80.4375 129.203 78.75 130.016 77.5625C130.578 76.6875 131.078 75.8438 131.516 75.0312C132.016 74.2188 132.484 73.4688 132.922 72.7812C133.609 71.6562 134.234 70.625 134.797 69.6875C135.422 68.6875 136.078 67.8125 136.766 67.0625C137.516 66.25 138.328 65.5625 139.203 65C140.078 64.375 141.141 63.8438 142.391 63.4062C143.141 63.7188 143.797 64.0625 144.359 64.4375C144.922 64.75 145.422 65.1562 145.859 65.6562L146.141 66.9688C146.266 67.4062 146.453 67.7188 146.703 67.9062C147.016 68.0312 147.266 68.0938 147.453 68.0938C148.266 68.2812 148.953 68.5 149.516 68.75C150.141 68.9375 150.797 69.0625 151.484 69.125C151.734 69.5 151.953 69.875 152.141 70.25C152.391 70.625 152.641 70.9688 152.891 71.2812C154.141 73.0938 155.172 74.8438 155.984 76.5312C156.797 78.2188 156.797 80.0625 155.984 82.0625L156.078 83.0938C156.391 83.5312 156.547 83.9375 156.547 84.3125C156.547 84.6875 156.484 85.2188 156.359 85.9062C156.297 86.4062 156.234 86.9688 156.172 87.5938C156.172 88.1562 156.266 88.7812 156.453 89.4688L157.109 90.2188C158.109 90.7188 159.078 90.9688 160.016 90.9688C161.266 90.9688 162.391 90.6875 163.391 90.125C164.391 89.5625 165.328 89 166.203 88.4375C166.891 87.9375 167.516 87.5312 168.078 87.2188C168.703 86.9062 169.297 86.6875 169.859 86.5625C171.172 85.3125 172.359 84.2188 173.422 83.2812C174.547 82.2812 175.703 81.2812 176.891 80.2812C179.141 78.4688 181.328 76.5312 183.453 74.4688C185.578 72.3438 187.266 69.7188 188.516 66.5938C189.203 66.1562 189.984 65.9375 190.859 65.9375C191.734 65.9375 192.609 66.125 193.484 66.5C194.359 66.8125 195.234 67.1875 196.109 67.625C196.297 67.75 196.453 67.8438 196.578 67.9062C196.766 67.9688 196.953 68.0625 197.141 68.1875C197.141 68.875 197.422 69.5 197.984 70.0625C198.297 70.3125 198.516 70.4688 198.641 70.5312C198.766 70.5938 198.891 70.6562 199.016 70.7188C199.516 71.0312 199.922 71.3125 200.234 71.5625C200.609 71.8125 200.891 72.1562 201.078 72.5938C201.641 74.2812 202.578 75.5938 203.891 76.5312C203.766 77.2188 203.797 77.9062 203.984 78.5938C204.172 79.2188 204.391 79.8438 204.641 80.4688C204.766 80.7188 204.859 80.9688 204.922 81.2188C204.984 81.4062 205.078 81.6562 205.203 81.9688L203.141 81.7812L203.422 83.8438C203.609 84.9062 203.516 86.0938 203.141 87.4062C202.828 88.7188 202.453 89.75 202.016 90.5C202.141 92.375 202.203 93.875 202.203 95C202.203 96.0625 202.141 97.0625 202.016 98C201.891 98.9375 201.672 99.8438 201.359 100.719C201.109 101.531 200.766 102.406 200.328 103.344C200.578 108.094 200.016 112.438 198.641 116.375C197.328 120.312 195.891 124 194.328 127.438C194.141 127.875 193.953 128.281 193.766 128.656C193.578 129.031 193.422 129.406 193.297 129.781C192.609 129.969 191.984 130.188 191.422 130.438C190.859 130.688 190.328 130.969 189.828 131.281C189.141 131.719 188.453 132.094 187.766 132.406C187.078 132.656 186.359 132.781 185.609 132.781C182.609 130.594 181.047 126.812 180.922 121.438C180.859 116.062 182.016 109.219 184.391 100.906C184.828 100.594 185.016 100.125 184.953 99.5V98.4688L184.016 98.375C183.703 98.375 183.422 98.4062 183.172 98.4688C182.922 98.5312 182.734 98.8125 182.609 99.3125C180.609 100.75 178.422 102.25 176.047 103.812C173.734 105.312 171.328 106.719 168.828 108.031C166.328 109.281 163.766 110.344 161.141 111.219C158.578 112.031 156.078 112.438 153.641 112.438C147.391 112.438 142.672 109.25 139.484 102.875L138.641 101.188L137.703 102.688C137.516 103 137.172 103.625 136.672 104.562C136.234 105.438 135.766 106.469 135.266 107.656C134.828 108.844 134.422 110.062 134.047 111.312C133.734 112.562 133.641 113.656 133.766 114.594C133.016 115.281 132.266 116.062 131.516 116.938C130.828 117.812 130.328 118.812 130.016 119.938C129.891 120.25 129.859 120.562 129.922 120.875C129.984 121.125 130.078 121.406 130.203 121.719C130.141 122.156 130.016 122.469 129.828 122.656C129.641 122.844 129.422 123.031 129.172 123.219C128.859 123.531 128.547 123.875 128.234 124.25C127.922 124.562 127.641 124.938 127.391 125.375C127.266 125.75 127.172 126.156 127.109 126.594C127.047 126.969 126.984 127.312 126.922 127.625C126.922 128.312 126.828 128.781 126.641 129.031C126.016 130.344 125.453 131.438 124.953 132.312C124.516 133.125 124.078 133.75 123.641 134.188C123.203 134.625 122.734 134.906 122.234 135.031C121.797 135.219 121.266 135.312 120.641 135.312ZM203.234 125.094L204.453 124.156L204.547 122.188C206.109 118.375 207.703 114.719 209.328 111.219C211.016 107.719 212.766 104.125 214.578 100.438C215.141 99.25 215.703 98.0625 216.266 96.875C216.891 95.6875 217.484 94.4688 218.047 93.2188C217.984 92.9688 217.953 92.7188 217.953 92.4688C217.953 92.1562 218.016 91.8125 218.141 91.4375C219.016 90.1875 219.703 89.0625 220.203 88.0625C220.766 87.0625 221.297 86.0312 221.797 84.9688C222.359 83.7188 222.953 82.4688 223.578 81.2188C224.266 79.9688 225.109 78.75 226.109 77.5625L226.766 76.625L227.797 76.7188C228.047 76.5938 228.297 76.5 228.547 76.4375C228.859 76.3125 229.234 76.25 229.672 76.25L231.359 76.5312C233.422 75.5938 235.234 74.25 236.797 72.5C238.422 70.6875 240.047 68.5312 241.672 66.0312L242.797 64.4375L244.297 65.375C244.609 65.5625 245.109 65.75 245.797 65.9375C246.484 66.125 247.203 66.3438 247.953 66.5938C249.266 66.9062 250.547 67.2812 251.797 67.7188C253.047 68.0938 254.016 68.625 254.703 69.3125L255.172 70.1562C255.297 70.8438 255.391 71.4688 255.453 72.0312C255.578 72.5938 255.703 73.1562 255.828 73.7188C256.078 75.0312 256.297 76.3438 256.484 77.6562C256.672 78.9062 256.797 80.3125 256.859 81.875C257.172 83.125 257.453 84.4062 257.703 85.7188C258.016 86.9688 258.297 88.2188 258.547 89.4688C258.859 91.2812 259.203 93.0312 259.578 94.7188C259.953 96.3438 260.453 97.9062 261.078 99.4062C261.703 99.4062 262.078 99.4375 262.203 99.5C262.953 99.1875 263.828 99 264.828 98.9375L266.047 98.8438L266.422 99.9688C266.547 100.156 266.703 100.344 266.891 100.531C267.078 100.719 267.297 100.906 267.547 101.094C268.547 101.156 269.266 101.375 269.703 101.75C270.203 102.062 270.609 102.375 270.922 102.688C271.047 102.812 271.203 102.969 271.391 103.156C271.578 103.281 271.734 103.375 271.859 103.438L273.547 104.094L272.609 105.875C271.922 107.188 270.859 108.469 269.422 109.719C268.047 110.969 266.484 112 264.734 112.812C264.859 113.25 264.922 113.656 264.922 114.031C264.984 114.406 265.078 114.844 265.203 115.344C265.453 116.594 265.641 117.906 265.766 119.281C265.953 120.594 265.953 121.969 265.766 123.406C265.141 125.031 264.391 126.5 263.516 127.812C262.703 129.062 261.703 130.219 260.516 131.281C259.391 132.281 258.109 133.125 256.672 133.812C255.234 134.438 253.734 134.781 252.172 134.844C251.297 134.656 250.641 134.438 250.203 134.188C249.828 133.938 249.484 133.688 249.172 133.438C248.672 133.062 248.266 132.812 247.953 132.688L246.734 132.125L247.109 130.719C247.297 130.219 247.266 129.781 247.016 129.406C246.828 129.031 246.391 128.531 245.703 127.906C245.453 127.719 245.234 127.531 245.047 127.344C244.859 127.094 244.641 126.844 244.391 126.594L242.516 124.438L245.609 123.594C247.484 123.094 248.734 122.469 249.359 121.719C249.984 120.906 250.234 119.5 250.109 117.5C248.547 117.188 247.266 117.156 246.266 117.406C245.266 117.594 244.266 117.812 243.266 118.062C241.828 118.438 240.422 118.781 239.047 119.094C237.672 119.344 236.172 119.469 234.547 119.469C233.484 119.469 232.359 119.375 231.172 119.188L230.141 119.094L229.859 118.062C229.859 117.938 229.766 117.812 229.578 117.688C229.453 117.5 229.328 117.344 229.203 117.219C228.891 116.844 228.516 116.344 228.078 115.719C227.641 115.094 227.547 114.312 227.797 113.375C227.359 112.688 227.109 111.969 227.047 111.219C226.797 111.719 226.578 112.219 226.391 112.719C226.266 113.156 226.141 113.594 226.016 114.031L225.641 115.25L224.422 115.438C224.297 115.562 224.172 115.75 224.047 116C223.984 116.25 223.984 116.438 224.047 116.562L224.422 117.594L223.484 118.438C223.359 118.625 223.203 118.781 223.016 118.906C222.828 119.031 222.672 119.156 222.547 119.281C222.422 119.969 222.234 120.625 221.984 121.25C221.797 121.875 221.578 122.5 221.328 123.125C221.016 124.125 220.703 125.094 220.391 126.031C220.141 126.969 220.016 127.906 220.016 128.844L219.641 130.062C219.328 130.562 218.922 130.938 218.422 131.188C217.984 131.438 217.547 131.656 217.109 131.844C216.484 132.094 216.047 132.344 215.797 132.594L215.516 133.812L214.109 134C213.297 134.188 212.703 134.312 212.328 134.375C212.016 134.438 211.641 134.469 211.203 134.469L209.984 134.375C209.234 133.625 208.609 133.062 208.109 132.688C207.672 132.25 207.141 131.875 206.516 131.562L205.953 130.812C205.703 130.312 205.547 129.875 205.484 129.5C205.422 129.062 205.328 128.625 205.203 128.188C205.078 127.375 204.891 126.812 204.641 126.5L203.234 125.094ZM233.141 100.719C232.266 101.969 231.422 103.281 230.609 104.656C231.047 104.594 231.453 104.562 231.828 104.562C232.266 104.562 232.703 104.531 233.141 104.469C235.328 104.344 237.359 104.188 239.234 104C241.109 103.812 243.141 103.5 245.328 103.062C244.828 100.75 244.266 98.4062 243.641 96.0312C243.078 93.5938 242.453 91.1562 241.766 88.7188L241.297 89.6562C239.734 91.3438 238.234 93.1562 236.797 95.0938C235.359 97.0312 234.172 98.875 233.234 100.625L233.141 100.719ZM281.516 135.312C280.891 135.312 279.922 135.219 278.609 135.031C277.609 133.969 276.703 132.531 275.891 130.719C275.141 128.844 274.547 126.875 274.109 124.812C273.734 122.688 273.547 120.594 273.547 118.531C273.609 116.406 273.984 114.531 274.672 112.906C274.672 112.844 274.953 112.094 275.516 110.656C276.141 109.219 276.922 107.406 277.859 105.219C278.797 102.969 279.859 100.5 281.047 97.8125C282.234 95.0625 283.422 92.375 284.609 89.75C285.797 87.125 286.922 84.75 287.984 82.625C289.109 80.4375 290.078 78.75 290.891 77.5625C291.453 76.6875 291.953 75.8438 292.391 75.0312C292.891 74.2188 293.359 73.4688 293.797 72.7812C294.484 71.6562 295.109 70.625 295.672 69.6875C296.297 68.6875 296.953 67.8125 297.641 67.0625C298.391 66.25 299.203 65.5625 300.078 65C300.953 64.375 302.016 63.8438 303.266 63.4062C304.016 63.7188 304.672 64.0625 305.234 64.4375C305.797 64.75 306.297 65.1562 306.734 65.6562L307.016 66.9688C307.141 67.4062 307.328 67.7188 307.578 67.9062C307.891 68.0312 308.141 68.0938 308.328 68.0938C309.141 68.2812 309.828 68.5 310.391 68.75C311.016 68.9375 311.672 69.0625 312.359 69.125C312.609 69.5 312.828 69.875 313.016 70.25C313.266 70.625 313.516 70.9688 313.766 71.2812C315.016 73.0938 316.047 74.8438 316.859 76.5312C317.672 78.2188 317.672 80.0625 316.859 82.0625L316.953 83.0938C317.266 83.5312 317.422 83.9375 317.422 84.3125C317.422 84.6875 317.359 85.2188 317.234 85.9062C317.172 86.4062 317.109 86.9688 317.047 87.5938C317.047 88.1562 317.141 88.7812 317.328 89.4688L317.984 90.2188C318.984 90.7188 319.953 90.9688 320.891 90.9688C322.141 90.9688 323.266 90.6875 324.266 90.125C325.266 89.5625 326.203 89 327.078 88.4375C327.766 87.9375 328.391 87.5312 328.953 87.2188C329.578 86.9062 330.172 86.6875 330.734 86.5625C332.047 85.3125 333.234 84.2188 334.297 83.2812C335.422 82.2812 336.578 81.2812 337.766 80.2812C340.016 78.4688 342.203 76.5312 344.328 74.4688C346.453 72.3438 348.141 69.7188 349.391 66.5938C350.078 66.1562 350.859 65.9375 351.734 65.9375C352.609 65.9375 353.484 66.125 354.359 66.5C355.234 66.8125 356.109 67.1875 356.984 67.625C357.172 67.75 357.328 67.8438 357.453 67.9062C357.641 67.9688 357.828 68.0625 358.016 68.1875C358.016 68.875 358.297 69.5 358.859 70.0625C359.172 70.3125 359.391 70.4688 359.516 70.5312C359.641 70.5938 359.766 70.6562 359.891 70.7188C360.391 71.0312 360.797 71.3125 361.109 71.5625C361.484 71.8125 361.766 72.1562 361.953 72.5938C362.516 74.2812 363.453 75.5938 364.766 76.5312C364.641 77.2188 364.672 77.9062 364.859 78.5938C365.047 79.2188 365.266 79.8438 365.516 80.4688C365.641 80.7188 365.734 80.9688 365.797 81.2188C365.859 81.4062 365.953 81.6562 366.078 81.9688L364.016 81.7812L364.297 83.8438C364.484 84.9062 364.391 86.0938 364.016 87.4062C363.703 88.7188 363.328 89.75 362.891 90.5C363.016 92.375 363.078 93.875 363.078 95C363.078 96.0625 363.016 97.0625 362.891 98C362.766 98.9375 362.547 99.8438 362.234 100.719C361.984 101.531 361.641 102.406 361.203 103.344C361.453 108.094 360.891 112.438 359.516 116.375C358.203 120.312 356.766 124 355.203 127.438C355.016 127.875 354.828 128.281 354.641 128.656C354.453 129.031 354.297 129.406 354.172 129.781C353.484 129.969 352.859 130.188 352.297 130.438C351.734 130.688 351.203 130.969 350.703 131.281C350.016 131.719 349.328 132.094 348.641 132.406C347.953 132.656 347.234 132.781 346.484 132.781C343.484 130.594 341.922 126.812 341.797 121.438C341.734 116.062 342.891 109.219 345.266 100.906C345.703 100.594 345.891 100.125 345.828 99.5V98.4688L344.891 98.375C344.578 98.375 344.297 98.4062 344.047 98.4688C343.797 98.5312 343.609 98.8125 343.484 99.3125C341.484 100.75 339.297 102.25 336.922 103.812C334.609 105.312 332.203 106.719 329.703 108.031C327.203 109.281 324.641 110.344 322.016 111.219C319.453 112.031 316.953 112.438 314.516 112.438C308.266 112.438 303.547 109.25 300.359 102.875L299.516 101.188L298.578 102.688C298.391 103 298.047 103.625 297.547 104.562C297.109 105.438 296.641 106.469 296.141 107.656C295.703 108.844 295.297 110.062 294.922 111.312C294.609 112.562 294.516 113.656 294.641 114.594C293.891 115.281 293.141 116.062 292.391 116.938C291.703 117.812 291.203 118.812 290.891 119.938C290.766 120.25 290.734 120.562 290.797 120.875C290.859 121.125 290.953 121.406 291.078 121.719C291.016 122.156 290.891 122.469 290.703 122.656C290.516 122.844 290.297 123.031 290.047 123.219C289.734 123.531 289.422 123.875 289.109 124.25C288.797 124.562 288.516 124.938 288.266 125.375C288.141 125.75 288.047 126.156 287.984 126.594C287.922 126.969 287.859 127.312 287.797 127.625C287.797 128.312 287.703 128.781 287.516 129.031C286.891 130.344 286.328 131.438 285.828 132.312C285.391 133.125 284.953 133.75 284.516 134.188C284.078 134.625 283.609 134.906 283.109 135.031C282.672 135.219 282.141 135.312 281.516 135.312ZM373.297 87.5938C373.172 86.7812 373.016 86.2812 372.828 86.0938C373.266 84.9688 373.578 83.875 373.766 82.8125C374.016 81.6875 374.203 80.625 374.328 79.625C374.453 78.75 374.578 77.9375 374.703 77.1875C374.891 76.4375 375.109 75.7188 375.359 75.0312C376.422 74.7812 377.203 74.3438 377.703 73.7188C378.266 73.0312 378.703 72.4375 379.016 71.9375C380.141 71.875 380.859 72.0312 381.172 72.4062C381.547 72.7812 381.953 73.4062 382.391 74.2812C382.703 74.9688 383.141 75.7188 383.703 76.5312C384.266 77.2812 385.109 77.875 386.234 78.3125C386.422 79 386.641 79.6562 386.891 80.2812C387.141 80.9062 387.422 81.5625 387.734 82.25C388.297 83.5625 388.828 84.9375 389.328 86.375C389.828 87.75 390.109 89.0625 390.172 90.3125C389.422 91.75 388.828 93.4062 388.391 95.2812C388.016 97.1562 387.766 99.0625 387.641 101C387.578 102.875 387.641 104.688 387.828 106.438C388.016 108.188 388.328 109.656 388.766 110.844L389.328 112.344L391.391 112.156C393.641 111.594 395.672 110.969 397.484 110.281C399.297 109.531 400.984 108.656 402.547 107.656C404.109 106.656 405.609 105.531 407.047 104.281C408.484 102.969 409.984 101.438 411.547 99.6875C413.047 97.9375 414.391 95.9688 415.578 93.7812C416.766 91.5312 417.734 89.2188 418.484 86.8438C419.297 84.4688 419.922 82.0938 420.359 79.7188C420.797 77.3438 421.078 75.125 421.203 73.0625C422.391 72.5 423.047 71.5938 423.172 70.3438L422.891 69.125C422.703 68.8125 422.609 68.5312 422.609 68.2812C422.672 67.9688 422.766 67.6875 422.891 67.4375C423.391 66 424.453 64.9375 426.078 64.25C427.203 65 428.234 65.8125 429.172 66.6875C430.172 67.5625 431.078 68.4375 431.891 69.3125C432.016 71 432.266 72.4688 432.641 73.7188C433.016 74.9062 433.422 76.0625 433.859 77.1875C434.297 78.25 434.672 79.2812 434.984 80.2812C435.359 81.2812 435.609 82.5 435.734 83.9375C435.109 85.8125 434.641 87.5938 434.328 89.2812C434.078 90.9062 433.828 92.625 433.578 94.4375L433.391 95.4688C432.266 97.4062 431.141 99.4062 430.016 101.469C428.953 103.469 428.078 105.219 427.391 106.719C427.016 107.094 426.672 107.531 426.359 108.031C426.109 108.531 425.859 109.031 425.609 109.531C425.484 109.719 425.297 110.031 425.047 110.469C424.859 110.906 424.672 111.219 424.484 111.406L422.234 110.562L421.672 113.469L420.172 113.844L419.047 115.156C417.609 117.656 416.078 119.75 414.453 121.438C412.891 123.125 411.109 124.625 409.109 125.938C407.172 127.25 404.953 128.5 402.453 129.688C400.016 130.812 397.203 132.031 394.016 133.344C392.766 133.156 391.672 133.062 390.734 133.062C389.859 133 388.984 132.938 388.109 132.875C387.234 132.875 386.391 132.844 385.578 132.781C384.766 132.719 383.828 132.625 382.766 132.5C382.516 131.938 382.172 131.531 381.734 131.281C381.297 131.031 380.891 130.906 380.516 130.906C379.266 130.281 378.328 129.406 377.703 128.281C377.078 127.156 376.422 125.906 375.734 124.531C375.422 123.781 375.078 123.031 374.703 122.281C374.391 121.531 373.984 120.812 373.484 120.125L375.359 119.562L372.922 116.75C372.734 116.562 372.516 116.375 372.266 116.188C372.078 116 371.891 115.781 371.703 115.531V113.75C371.453 108.625 371.328 103.906 371.328 99.5938C371.391 95.2188 371.984 91.375 373.109 88.0625L373.297 87.5938ZM435.359 81.125C435.297 80.625 435.172 80.1875 434.984 79.8125C434.859 79.375 434.703 78.9062 434.516 78.4062C434.203 77.6562 433.922 76.8438 433.672 75.9688C433.422 75.0938 433.297 74.0625 433.297 72.875C433.422 72.25 433.578 71.8125 433.766 71.5625C433.953 71.25 434.141 71 434.328 70.8125L434.703 69.125H436.109C436.609 69.1875 437.109 69.2188 437.609 69.2188C438.172 69.2188 438.703 69.2188 439.203 69.2188C441.578 69.2188 444.016 69.125 446.516 68.9375C449.016 68.75 451.578 68.5312 454.203 68.2812C457.078 67.9062 460.172 67.625 463.484 67.4375C463.797 66.75 463.984 66.3125 464.047 66.125C464.172 65.9375 464.297 65.7188 464.422 65.4688L465.453 64.9062C466.891 64.8438 467.891 65.0312 468.453 65.4688C469.016 65.8438 469.453 66.2188 469.766 66.5938C471.391 66.4688 473.047 66.3125 474.734 66.125C476.422 65.875 478.172 65.625 479.984 65.375C482.484 65.0625 485.016 64.75 487.578 64.4375C490.141 64.125 492.641 63.9688 495.078 63.9688C496.141 63.9688 497.141 64 498.078 64.0625C499.016 64.125 499.922 64.2188 500.797 64.3438L501.922 65.1875C502.172 65.625 502.484 66.0312 502.859 66.4062C503.234 66.7812 503.672 67.1562 504.172 67.5312C505.109 68.2812 506.016 69.2188 506.891 70.3438C507.828 71.4688 508.172 73.125 507.922 75.3125L507.453 76.25C507.203 76.5 506.891 76.75 506.516 77L505.578 78.2188H504.547C503.922 78.2188 503.453 78.2812 503.141 78.4062C502.828 78.4688 502.453 78.5938 502.016 78.7812C501.766 78.9062 501.484 79.0312 501.172 79.1562C500.859 79.2188 500.516 79.3125 500.141 79.4375C499.453 79.375 498.922 79.3438 498.547 79.3438C498.172 79.3438 497.734 79.3438 497.234 79.3438C495.359 79.3438 493.328 79.4688 491.141 79.7188C488.953 79.9688 486.828 80.25 484.766 80.5625C483.266 80.75 481.828 80.9375 480.453 81.125C479.078 81.25 477.828 81.375 476.703 81.5C476.078 83.125 475.516 84.5625 475.016 85.8125C474.516 87.0625 473.984 88.3125 473.422 89.5625C472.859 90.8125 472.328 92.0938 471.828 93.4062C471.328 94.6562 470.859 96.0625 470.422 97.625C469.672 98.75 469.047 99.8438 468.547 100.906C468.047 101.906 467.641 103.062 467.328 104.375C466.391 105.438 465.703 106.594 465.266 107.844C464.891 109.094 464.547 110.156 464.234 111.031L463.859 112.438C463.422 112.875 463.141 113.219 463.016 113.469C462.953 113.719 462.797 114 462.547 114.312C462.359 115.125 462.109 115.906 461.797 116.656C461.672 116.969 461.547 117.312 461.422 117.688C461.297 118 461.266 118.25 461.328 118.438C461.203 119.125 461.016 119.656 460.766 120.031C460.766 120.406 460.734 120.781 460.672 121.156C460.609 121.531 460.547 121.906 460.484 122.281C460.359 122.719 460.266 123.125 460.203 123.5C460.141 123.812 460.172 124.125 460.297 124.438C460.484 124.688 460.672 124.938 460.859 125.188C461.047 125.438 461.203 125.75 461.328 126.125C461.453 126.25 461.609 126.344 461.797 126.406C461.984 126.469 462.141 126.562 462.266 126.688C462.766 127.125 463.234 127.375 463.672 127.438L464.609 128.562C464.984 130.812 464.641 132.562 463.578 133.812C462.453 135.25 460.578 135.969 457.953 135.969L456.641 135.875C456.203 135.438 455.953 135.156 455.891 135.031C455.328 134.781 454.859 134.562 454.484 134.375C454.109 134.25 453.766 133.969 453.453 133.531C453.328 133.406 453.172 133.344 452.984 133.344C452.797 133.281 452.641 133.188 452.516 133.062C451.891 132.875 451.391 132.656 451.016 132.406L449.984 131.844C450.047 131.219 450.078 130.781 450.078 130.531C449.578 129.844 449.172 129.094 448.859 128.281C448.609 127.469 448.391 126.625 448.203 125.75C448.016 125.062 447.828 124.438 447.641 123.875C447.516 123.312 447.297 122.812 446.984 122.375C446.859 118 447.266 114.344 448.203 111.406C449.141 108.406 450.172 105.5 451.297 102.688C451.922 101.188 452.516 99.6562 453.078 98.0938C453.641 96.5312 454.141 94.9375 454.578 93.3125L455.609 92.2812C456.047 91.9062 456.328 91.6875 456.453 91.625C456.453 90.8125 456.609 90.0312 456.922 89.2812C457.234 88.4688 457.578 87.6562 457.953 86.8438C458.203 86.3438 458.422 85.8438 458.609 85.3438C458.859 84.8438 459.016 84.4062 459.078 84.0312C458.641 84.0312 458.234 84.0625 457.859 84.125C457.547 84.125 457.203 84.1562 456.828 84.2188C456.016 84.4062 455.234 84.5 454.484 84.5C453.922 84.5 453.516 84.4688 453.266 84.4062C452.766 84.6562 452.297 84.8125 451.859 84.875C451.422 84.875 450.984 84.875 450.547 84.875H449.422H448.297C447.547 84.875 446.953 84.9688 446.516 85.1562C445.641 85.1562 445.078 85.1562 444.828 85.1562C444.578 85.1562 444.297 85.1562 443.984 85.1562H442.859H441.734C441.234 85.1562 440.672 85.125 440.047 85.0625C439.422 84.9375 438.766 84.6875 438.078 84.3125L437.422 83.5625C437.047 82.875 436.703 82.5 436.391 82.4375L435.359 82.1562V81.125ZM496.859 130.812C496.359 130.312 495.984 129.719 495.734 129.031C495.547 128.344 495.047 127.781 494.234 127.344C494.109 126.406 493.922 125.344 493.672 124.156C493.484 122.906 493.266 121.656 493.016 120.406C492.828 119.094 492.672 117.812 492.547 116.562C492.484 115.25 492.547 114.062 492.734 113C492.859 112.438 493.047 111.906 493.297 111.406C493.609 110.906 493.891 110.438 494.141 110C494.453 109.5 494.672 109 494.797 108.5C494.984 108 495.016 107.5 494.891 107C495.266 106.938 495.484 106.75 495.547 106.438C495.672 106.062 495.984 105.938 496.484 106.062C496.922 104.688 497.391 103.406 497.891 102.219C498.391 101.031 498.922 99.875 499.484 98.75C500.047 97.625 500.609 96.5 501.172 95.375C501.797 94.1875 502.359 92.875 502.859 91.4375C501.797 90.4375 501.016 89.375 500.516 88.25C500.078 87.0625 499.734 85.875 499.484 84.6875C499.234 83.5 499.047 82.3125 498.922 81.125C498.797 79.875 498.547 78.625 498.172 77.375C498.922 76.25 499.828 75.3438 500.891 74.6562C501.953 73.9062 503.109 73.3125 504.359 72.875C505.672 72.375 507.078 72 508.578 71.75C510.078 71.4375 511.672 71.0938 513.359 70.7188C516.359 69.7812 519.047 69.0625 521.422 68.5625C523.797 68 526.109 67.5625 528.359 67.25C530.609 66.875 532.953 66.5625 535.391 66.3125C537.828 66 540.641 65.5625 543.828 65C543.891 65.1875 543.984 65.2812 544.109 65.2812C544.297 65.2812 544.516 65.2812 544.766 65.2812C544.953 65.7188 545.297 65.9375 545.797 65.9375C545.797 65.75 545.766 65.5938 545.703 65.4688C545.703 65.2812 545.703 65.125 545.703 65C545.828 65 545.984 65.0312 546.172 65.0938C546.422 65.1562 546.609 65.2188 546.734 65.2812C546.922 65.3438 547.078 65.3438 547.203 65.2812C547.328 65.1562 547.359 64.9375 547.297 64.625C548.047 65.9375 549.016 67.0312 550.203 67.9062C551.391 68.7188 552.703 69.4375 554.141 70.0625C554.203 70.625 554.203 71.0312 554.141 71.2812C554.141 71.5312 554.109 71.7812 554.047 72.0312C553.984 72.2188 553.953 72.4688 553.953 72.7812C553.953 73.0312 554.016 73.4062 554.141 73.9062C553.141 75.5938 551.984 76.9062 550.672 77.8438C549.422 78.7812 548.078 79.5 546.641 80C545.203 80.5 543.672 80.875 542.047 81.125C540.484 81.375 538.859 81.6562 537.172 81.9688C535.547 82.2188 533.891 82.5938 532.203 83.0938C530.516 83.5938 528.859 84.3438 527.234 85.3438C526.734 85.1562 526.266 85.0938 525.828 85.1562C525.453 85.1562 525.047 85.2188 524.609 85.3438C524.172 85.4688 523.672 85.5938 523.109 85.7188C522.609 85.8438 521.984 85.8438 521.234 85.7188C520.734 86.1562 520.141 86.4688 519.453 86.6562C518.828 86.8438 518.172 87.0312 517.484 87.2188C517.797 87.9062 517.922 88.5938 517.859 89.2812C517.859 89.9688 517.953 90.5625 518.141 91.0625C520.766 91.3125 523.672 91.3125 526.859 91.0625C530.047 90.75 533.172 90.5312 536.234 90.4062C536.297 90.7188 536.266 90.9375 536.141 91.0625C536.016 91.1875 535.953 91.4062 535.953 91.7188C536.516 92.0938 537.047 92.5625 537.547 93.125C538.047 93.6875 538.547 94.25 539.047 94.8125C539.609 95.3125 540.172 95.75 540.734 96.125C541.297 96.4375 541.953 96.5625 542.703 96.5C543.016 97.125 543.234 97.7812 543.359 98.4688C543.484 99.1562 543.391 99.875 543.078 100.625C541.828 101.438 540.609 102.281 539.422 103.156C538.234 103.969 536.984 104.719 535.672 105.406C534.422 106.094 533.047 106.656 531.547 107.094C530.047 107.531 528.422 107.719 526.672 107.656C526.359 107.656 526.078 107.656 525.828 107.656C525.641 107.656 525.391 107.531 525.078 107.281C524.453 107.594 523.609 107.719 522.547 107.656C521.547 107.531 520.703 107.625 520.016 107.938C519.141 107.625 518.109 107.469 516.922 107.469C515.797 107.469 514.797 107.312 513.922 107C512.797 108.625 511.734 110.344 510.734 112.156C509.734 113.906 508.859 115.781 508.109 117.781C510.672 118.156 512.797 118.312 514.484 118.25C516.172 118.188 517.766 118.062 519.266 117.875C520.766 117.688 522.297 117.5 523.859 117.312C525.484 117.125 527.453 117.062 529.766 117.125C531.328 116.375 533.109 115.875 535.109 115.625C537.172 115.312 539.078 114.875 540.828 114.312C541.453 114.5 541.984 114.875 542.422 115.438C542.859 115.938 543.266 116.469 543.641 117.031C544.078 117.531 544.516 117.969 544.953 118.344C545.391 118.719 545.953 118.844 546.641 118.719C546.953 119.031 547.141 119.406 547.203 119.844C547.328 120.281 547.422 120.688 547.484 121.062C547.609 121.438 547.766 121.75 547.953 122C548.141 122.188 548.484 122.25 548.984 122.188C547.797 124.625 546.453 126.5 544.953 127.812C543.516 129.125 541.859 130.156 539.984 130.906C538.172 131.594 536.109 132.125 533.797 132.5C531.547 132.812 529.016 133.219 526.203 133.719C525.516 133.844 524.922 133.844 524.422 133.719C523.984 133.531 523.516 133.438 523.016 133.438C521.266 133.75 519.172 134.062 516.734 134.375C514.359 134.688 511.953 134.812 509.516 134.75C507.078 134.688 504.734 134.375 502.484 133.812C500.234 133.25 498.359 132.25 496.859 130.812Z" fill="#8C5929"/>
</svg>
